<?xml version="1.0" encoding="utf-8"?>
<!-- Generator: Adobe Illustrator 16.0.0, SVG Export Plug-In . SVG Version: 6.00 Build 0)  -->
<!DOCTYPE svg PUBLIC "-//W3C//DTD SVG 1.1//EN" "http://www.w3.org/Graphics/SVG/1.1/DTD/svg11.dtd">
<svg version="1.1" id="Layer_1" xmlns="http://www.w3.org/2000/svg" xmlns:xlink="http://www.w3.org/1999/xlink" x="0px" y="0px"
	 width="1106.606px" height="86.955px" viewBox="0 0 1106.606 86.955" enable-background="new 0 0 1106.606 86.955"
	 xml:space="preserve">
<g>
	<g>
		<path fill="#8F3F42" d="M422.812,80.786H396.45l4.582-25.898h-21.985l-4.583,25.898h-26.259l8.444-48.347h-8.701l3.964-21.934
			h35.063l-4.583,25.898h21.986l4.582-25.898h26.361L422.812,80.786z"/>
		<path fill="#8F3F42" d="M456.713,80.786h-26.258l8.444-48.347h-8.701l3.964-21.934h35.063L456.713,80.786z"/>
		<path fill="#8F3F42" d="M538.961,80.786h-37.328c-8.753,0-16.134-2.695-22.14-8.084c-6.351-5.629-9.525-12.75-9.525-21.367
			c0-10.881,4.667-20.492,14.004-28.833c9.028-7.998,19.068-11.997,30.121-11.997c9.61,0,17.557,3.192,23.838,9.577l-18.896,16.064
			c-2.368-2.471-5.337-3.707-8.907-3.707c-4.017,0-7.69,1.565-11.019,4.695c-3.365,3.095-5.045,6.638-5.045,10.626
			c0,3.166,1.115,5.813,3.346,7.944c2.196,2.098,4.925,3.148,8.187,3.148h10.967l2.266-13.181h26.361L538.961,80.786z"/>
		<path fill="#8F3F42" d="M621.209,80.786h-26.361l4.582-25.898h-21.985l-4.583,25.898h-26.258l8.444-48.347h-8.702l3.965-21.934
			h35.063l-4.583,25.898h21.985l4.583-25.898h26.361L621.209,80.786z"/>
		<path fill="#8F3F42" d="M707.577,32.439H679.67c-1.408,0-2.111,0.772-2.111,2.317c0,0.172,3.741,3.501,11.224,9.989
			c3.638,3.124,5.458,7.26,5.458,12.409c0,6.351-2.78,11.911-8.341,16.682c-5.321,4.634-11.207,6.951-17.66,6.951h-48.142
			l3.913-21.934h34.806c1.407,0,2.111-0.791,2.111-2.372c0-0.136-3.519-3.161-10.555-9.071c-3.021-2.577-4.531-6.167-4.531-10.773
			c0-6.803,2.644-12.851,7.929-18.143c5.32-5.326,11.396-7.989,18.226-7.989h39.543L707.577,32.439z"/>
		<path fill="#8F3F42" d="M778.167,80.786h-37.329c-8.753,0-16.134-2.695-22.14-8.084c-6.351-5.629-9.525-12.75-9.525-21.367
			c0-10.881,4.667-20.492,14.005-28.833c9.027-7.998,19.067-11.997,30.12-11.997h28.575l-3.964,21.934h-28.575
			c-4.016,0-7.69,1.565-11.019,4.695c-3.365,3.095-5.046,6.638-5.046,10.626c0,3.166,1.115,5.813,3.347,7.944
			c2.196,2.098,4.924,3.148,8.186,3.148h37.328L778.167,80.786z"/>
		<path fill="#8F3F42" d="M855.243,39.905c0,10.915-4.668,20.526-14.004,28.833c-9.028,8.032-19.068,12.048-30.12,12.048
			c-8.753,0-16.134-2.695-22.14-8.084c-6.351-5.629-9.525-12.75-9.525-21.367c0-10.881,4.668-20.492,14.005-28.833
			c9.028-7.998,19.067-11.997,30.12-11.997c8.753,0,16.133,2.695,22.14,8.083C852.068,24.219,855.243,31.324,855.243,39.905z
			 M831.147,43.634c0-3.163-1.133-5.812-3.398-7.945c-2.232-2.166-4.943-3.25-8.135-3.25c-4.016,0-7.689,1.565-11.018,4.695
			c-3.365,3.095-5.046,6.638-5.046,10.626c0,3.166,1.114,5.813,3.347,7.944c2.196,2.098,4.925,3.148,8.187,3.148
			c3.981,0,7.653-1.547,11.018-4.643C829.465,51.045,831.147,47.52,831.147,43.634z"/>
		<path fill="#8F3F42" d="M939.293,30.452c0,5.567-1.923,10.79-5.767,15.668c-3.638,4.673-8.152,7.99-13.541,9.948
			c0.754,1.856,2.128,2.784,4.119,2.784h14.932l-3.964,21.934h-22.81c-5.904,0-11.242-2.928-16.013-8.784l-10.091-12.277
			l-3.811,21.061H856.09l6.59-37.792h43.043c1.544,0,2.986-0.618,4.325-1.854c1.339-1.269,2.008-2.677,2.008-4.221
			c0-0.618-0.121-1.193-0.36-1.725c-0.24-0.532-0.558-1.005-0.953-1.417c-0.395-0.412-0.867-0.738-1.416-0.978
			s-1.133-0.361-1.75-0.361h-51.745l3.964-21.934h58.798c5.732,0,10.606,1.907,14.623,5.721
			C937.268,20.041,939.293,24.783,939.293,30.452z"/>
		<path fill="#8F3F42" d="M1021.438,32.439H977.52l-0.618,3.964h26.361l-3.347,18.484h-26.361l-0.618,3.965h43.97l-3.964,21.934
			h-70.229l8.444-48.347h-8.701l3.964-21.934h78.982L1021.438,32.439z"/>
		<path fill="#8F3F42" d="M1099.311,32.439h-27.906c-1.408,0-2.111,0.772-2.111,2.317c0,0.172,3.741,3.501,11.225,9.989
			c3.638,3.124,5.457,7.26,5.457,12.409c0,6.351-2.78,11.911-8.34,16.682c-5.322,4.634-11.207,6.951-17.661,6.951h-48.141
			l3.913-21.934h34.806c1.407,0,2.111-0.791,2.111-2.372c0-0.136-3.519-3.161-10.555-9.071c-3.02-2.577-4.531-6.167-4.531-10.773
			c0-6.803,2.643-12.851,7.929-18.143c5.321-5.326,11.396-7.989,18.227-7.989h39.542L1099.311,32.439z"/>
	</g>
</g>
<g>
	<g>
		<g>
			<path fill="#EF3B33" d="M52.704,28.07c0,6.521-2.789,12.264-8.367,17.227c-5.394,4.799-11.393,7.198-17.996,7.198H4.07
				L9.115,23.61H3.916l2.369-13.104h27.501c5.229,0,9.639,1.61,13.228,4.83C50.807,18.699,52.704,22.944,52.704,28.07z
				 M38.308,30.237c0-1.849-0.677-3.411-2.03-4.685c-1.333-1.294-2.953-1.942-4.86-1.942h-7.598l-2.738,15.781h7.629
				c2.379,0,4.573-0.924,6.583-2.774C37.303,34.727,38.308,32.6,38.308,30.237z"/>
			<path fill="#EF3B33" d="M99.954,28.07c0,6.521-2.789,12.264-8.367,17.227c-5.394,4.799-11.393,7.198-17.996,7.198H51.32
				l5.045-28.885h-5.199l2.369-13.104h27.501c5.229,0,9.639,1.61,13.228,4.83C98.057,18.699,99.954,22.944,99.954,28.07z
				 M85.558,30.237c0-1.849-0.677-3.411-2.03-4.685c-1.333-1.294-2.953-1.942-4.86-1.942h-7.598l-2.738,15.781h7.629
				c2.379,0,4.573-0.924,6.583-2.774C84.553,34.727,85.558,32.6,85.558,30.237z"/>
			<path fill="#EF3B33" d="M148.281,22.423c0,3.326-1.149,6.446-3.445,9.361c-2.174,2.792-4.871,4.773-8.09,5.943
				c0.451,1.109,1.271,1.663,2.461,1.663h8.921l-2.369,13.104h-13.627c-3.527,0-6.717-1.749-9.567-5.248l-6.029-7.335l-2.276,12.583
				H98.57l3.938-22.579h25.717c0.923,0,1.784-0.369,2.584-1.107c0.8-0.758,1.2-1.6,1.2-2.522c0-0.369-0.072-0.712-0.215-1.03
				c-0.144-0.318-0.333-0.6-0.569-0.846c-0.236-0.246-0.519-0.441-0.846-0.584c-0.328-0.143-0.677-0.215-1.046-0.215H98.416
				l2.369-13.104h35.13c3.425,0,6.337,1.14,8.736,3.418C147.07,16.203,148.281,19.036,148.281,22.423z"/>
			<path fill="#EF3B33" d="M195.469,23.61h-26.24l-0.369,2.369h15.75l-2,11.043h-15.75l-0.369,2.369h26.271l-2.369,13.104h-41.959
				l5.045-28.885h-5.199l2.369-13.104h47.188L195.469,23.61z"/>
			<path fill="#EF3B33" d="M232.722,31.485l12.797,21.01h-19.411l-5.26-8.675l-8.398,8.675h-19.38l20.21-21.01l-4.83-7.875h-15.535
				l2.369-13.104h24.609l5.26,8.644l8.398-8.644h19.441L232.722,31.485z"/>
			<path fill="#EF3B33" d="M297.813,22.872c0,4.266-1.835,8.172-5.506,11.72c-3.65,3.527-7.64,5.291-11.966,5.291H266.16
				l-2.276,12.612h-15.688l3.938-22.579h25.717c0.923,0,1.784-0.369,2.584-1.107c0.8-0.758,1.2-1.6,1.2-2.522
				c0-0.369-0.072-0.712-0.215-1.03c-0.144-0.318-0.333-0.6-0.569-0.846c-0.236-0.246-0.519-0.441-0.846-0.584
				c-0.328-0.143-0.677-0.215-1.046-0.215h-30.916l2.369-13.104h35.13c3.445,0,6.347,1.21,8.706,3.63
				C296.624,16.576,297.813,19.488,297.813,22.872z"/>
		</g>
		<g>
			<path fill="#EF3B33" d="M118.909,63.809h-7.546l1.448,16.993h-9.573l-0.235-3.095h-7.04l-1.357,3.095H85.05L95.89,56.1h24.413
				L118.909,63.809z M101.826,64.334l-3.149,7.202h3.764L101.826,64.334z"/>
			<path fill="#EF3B33" d="M145.24,80.802h-11.112c-2.075,0-3.951-1.029-5.628-3.088l-3.547-4.314l-1.339,7.402h-9.229l4.361-24.702
				h17.608c2.015,0,3.728,0.67,5.14,2.011c1.423,1.341,2.135,3.007,2.135,5c0,1.957-0.676,3.792-2.027,5.508
				c-1.279,1.643-2.865,2.808-4.759,3.496c0.265,0.652,0.748,0.979,1.448,0.979h8.343L145.24,80.802z M134.219,64.46
				c0-0.435-0.148-0.805-0.443-1.112c-0.296-0.308-0.661-0.462-1.095-0.462h-5.881l-0.651,3.71h5.881
				c0.531,0,1.025-0.217,1.484-0.651C133.984,65.498,134.219,65.003,134.219,64.46z"/>
			<path fill="#EF3B33" d="M172.947,63.809h-13.138c-1.412,0-2.703,0.55-3.873,1.65c-1.182,1.088-1.773,2.333-1.773,3.735
				c0,1.112,0.392,2.043,1.176,2.792c0.772,0.737,1.731,1.106,2.877,1.106h10.026l-1.394,7.709h-10.025
				c-3.077,0-5.671-0.947-7.782-2.841c-2.232-1.979-3.348-4.482-3.348-7.511c0-3.824,1.641-7.202,4.922-10.134
				c3.173-2.812,6.702-4.217,10.587-4.217h13.138L172.947,63.809z"/>
			<path fill="#EF3B33" d="M202.282,63.809h-7.546l1.448,16.993h-9.573l-0.235-3.095h-7.04l-1.357,3.095h-9.555l10.84-24.702h24.413
				L202.282,63.809z M185.198,64.334l-3.149,7.202h3.764L185.198,64.334z"/>
			<path fill="#EF3B33" d="M226.369,66.433c0,3.837-1.641,7.215-4.922,10.135c-3.173,2.823-6.702,4.234-10.586,4.234h-13.103
				l4.361-24.702h13.121c3.076,0,5.67,0.947,7.782,2.841C225.253,60.919,226.369,63.417,226.369,66.433z M217.9,67.707
				c0-1.088-0.398-2.007-1.194-2.756c-0.785-0.762-1.737-1.143-2.859-1.143h-4.47l-1.61,9.284h4.488c1.399,0,2.69-0.544,3.873-1.632
				C217.309,70.349,217.9,69.098,217.9,67.707z"/>
			<path fill="#EF3B33" d="M256.32,63.809h-18.531l-0.217,1.394h9.266l-1.176,6.497h-9.266l-0.217,1.394h15.455l-1.393,7.709
				h-24.685l4.361-24.702h27.797L256.32,63.809z"/>
		</g>
	</g>
	<polygon fill="#EF3B33" points="86.1,56.126 92.933,56.126 90.083,62.459 83.25,62.459 	"/>
	<polygon fill="#EF3B33" points="82.1,65.141 88.933,65.141 86.083,71.474 79.25,71.474 	"/>
	<polygon fill="#EF3B33" points="78.038,74.468 84.871,74.468 82.02,80.801 75.187,80.801 	"/>
</g>
</svg>
